<svg width="23" height="5" viewBox="0 0 23 5" fill="none" xmlns="http://www.w3.org/2000/svg">
<path fill-rule="evenodd" clip-rule="evenodd" d="M2.24 0.500255C1.64592 0.500255 1.07608 0.73619 0.65608 1.15633C0.23592 1.57633 0 2.14617 0 2.74025C0 3.33433 0.235936 3.90417 0.65608 4.32417C1.07608 4.74433 1.64592 4.98025 2.24 4.98025C2.83408 4.98025 3.40392 4.74432 3.82392 4.32417C4.24408 3.90417 4.48 3.33433 4.48 2.74025C4.48 2.14617 4.24406 1.57633 3.82392 1.15633C3.40392 0.736174 2.83408 0.500255 2.24 0.500255ZM11.2 0.500255C10.6059 0.500255 10.0361 0.73619 9.61608 1.15633C9.19592 1.57633 8.96 2.14617 8.96 2.74025C8.96 3.33433 9.19593 3.90417 9.61608 4.32417C10.0361 4.74433 10.6059 4.98025 11.2 4.98025C11.7941 4.98025 12.3639 4.74432 12.7839 4.32417C13.2041 3.90417 13.44 3.33433 13.44 2.74025C13.44 2.14353 13.202 1.57149 12.7786 1.15105C12.3553 0.730575 11.7817 0.496375 11.185 0.500255H11.2ZM20.16 0.500255C19.5659 0.500255 18.9961 0.73619 18.5761 1.15633C18.1559 1.57633 17.92 2.14617 17.92 2.74025C17.92 3.33433 18.1559 3.90417 18.5761 4.32417C18.9961 4.74433 19.5659 4.98025 20.16 4.98025C20.7541 4.98025 21.3239 4.74432 21.7439 4.32417C22.1641 3.90417 22.4 3.33433 22.4 2.74025C22.4 2.14025 22.1595 1.56541 21.732 1.14433C21.3047 0.723255 20.7262 0.491215 20.1264 0.500255H20.16Z" fill="#332D2D"/>
</svg>
